<?xml version="1.0" encoding="utf-8"?>
<!-- Generator: Adobe Illustrator 27.0.0, SVG Export Plug-In . SVG Version: 6.00 Build 0)  -->
<svg version="1.1" id="Capa_1" xmlns="http://www.w3.org/2000/svg" xmlns:xlink="http://www.w3.org/1999/xlink" x="0px" y="0px"
	 viewBox="0 0 426.62 433.72" style="enable-background:new 0 0 426.62 433.72;" xml:space="preserve">
<style type="text/css">
	.st0{fill:#FFFFFF;}
	.st1{fill:#E30613;}
</style>
<g>
	<g>
		<g>
			<path class="st0" d="M170.74,74.51c14.09-4.95,28.16-3.33,42.08-3.37c12.66-0.04,21.7,9.1,21.69,21.22
				c-0.01,12.11-9.06,20.99-21.75,21.23c-6.33,0.12-12.67-0.02-19,0.04c-14.3,0.14-22.79,8.47-22.83,22.64
				c-0.08,28-0.06,56.01-0.01,84.01c0.02,12.32,8.59,21.24,20.99,21.27c56.83,0.12,113.66,0.12,170.48,0.01
				c12.88-0.02,21.46-9.12,21.61-22.48c0.16-14.17-0.13-28.34,0.17-42.5c0.22-10.47,8.44-18.96,18.74-20.12
				c10.3-1.17,20.1,5.33,22.84,15.4c0.69,2.52,0.79,5.27,0.8,7.91c0.08,13.17,0.11,26.34,0.02,39.5
				c-0.25,37.54-28.05,65.12-65.69,65.15c-55.16,0.04-110.32,0.01-165.49,0.01c-40.19,0-67.78-27.59-67.75-67.93
				c0.04-47.5,0.2-95,0.36-142.5c0.02-6.55-1.24-12.57-5.88-17.51c-4.5-4.79-10.14-6.83-16.58-6.87c-6.67-0.05-13.33,0.09-20-0.05
				c-12.62-0.26-21.62-9.28-21.54-21.43c0.08-11.9,9.05-20.93,21.4-21.02c10.32-0.08,20.82-0.8,30.93,0.78
				c31.62,4.93,53.13,30.21,54.17,62.31C170.56,71.36,170.64,72.51,170.74,74.51z"/>
			<path class="st0" d="M191.89,433.72c-35.37-0.04-63.86-28.53-63.88-63.89c-0.02-35.26,28.55-64.03,63.73-64.18
				c35.18-0.15,64.46,29.13,64.29,64.29C255.86,405.18,227.12,433.76,191.89,433.72z M213.25,369.88
				c0.05-11.72-9.5-21.36-21.2-21.41c-11.7-0.05-21.36,9.49-21.46,21.19c-0.1,11.56,9.64,21.41,21.24,21.49
				C203.42,391.23,213.19,381.52,213.25,369.88z"/>
			<path class="st0" d="M362.57,433.72c-35.2-0.02-63.96-28.72-64.03-63.89c-0.07-35.17,29.28-64.42,64.39-64.18
				c35.23,0.24,63.72,29.02,63.63,64.29C426.47,405.33,397.96,433.74,362.57,433.72z M362.76,348.46
				c-11.72-0.07-21.37,9.46-21.43,21.17c-0.06,11.68,9.51,21.4,21.17,21.5c11.56,0.1,21.4-9.62,21.5-21.23
				C384.09,358.31,374.41,348.53,362.76,348.46z"/>
			<path class="st0" d="M21.32,7.07c11.87,0.04,21.14,9.32,21.16,21.19c0.02,12.07-9.46,21.43-21.57,21.29
				C9.08,49.41-0.09,40.01,0,28.11C0.09,16.25,9.42,7.04,21.32,7.07z"/>
		</g>
	</g>
	<circle class="st1" cx="330.68" cy="85.36" r="85.36"/>
</g>
</svg>
