<?xml version="1.0" encoding="utf-8"?>
<!-- Generator: Adobe Illustrator 23.0.2, SVG Export Plug-In . SVG Version: 6.00 Build 0)  -->
<svg version="1.1" id="Capa_1" xmlns="http://www.w3.org/2000/svg" xmlns:xlink="http://www.w3.org/1999/xlink" x="0px" y="0px"
	 viewBox="0 0 492.5 187.9" style="enable-background:new 0 0 492.5 187.9;" xml:space="preserve">
<style type="text/css">
	.st0{enable-background:new    ;}
	.st1{fill:#FFFFFF;}
</style>
<g class="st0">
	<path class="st1" d="M34.8,119.7c0,14.9,4.7,19.9,14.8,19.9c3.4,0,8.8-0.8,15.8-2.4l3.3,17.5c-6.8,1.8-13.7,2.6-20.7,2.6
		c-10.4,0-18.8-2.9-25-8.9s-9.2-15.6-9.2-28.8s3-22.8,9.2-28.7c6.2-6,14.5-9,25-9c7,0,13.9,0.8,20.7,2.6l-3.3,17.5
		c-7-1.6-12.3-2.4-15.8-2.4C39.5,99.8,34.8,104.8,34.8,119.7z"/>
	<path class="st1" d="M109.4,105.5l17.7-1v51.9h-16.7l-1-4.5c-7.1,3.7-13.2,5.5-18.2,5.5c-8.4,0-14.2-5.1-14.2-16.9v-35l17.7-1v29.9
		c0,4.5,1.7,6.1,5.3,6.1c1.7,0,4.8-0.6,9.3-1.9V105.5z"/>
	<path class="st1" d="M173.2,124c-3.9-1.6-7-2.1-9.4-1.6c-2.4,0.5-5.2,3-8.5,7.4v26.5h-17.7v-50.8l17.7-1v8c3.7-4.3,6.9-6.9,9.7-7.8
		c2.9-1,6.3-0.9,10.1,0.4L173.2,124z"/>
	<path class="st1" d="M181.5,78.2l17.7-1v61.4c0,3.3,3,3.5,8.6,2l1.4,14.8c-5.3,1.4-9.9,2-13.9,2c-7.8,0-13.8-5-13.8-14.7V78.2z"/>
	<path class="st1" d="M228.5,104.4l7.9,32.9l7.9-32.9l19.4,1l-22.8,72.9l-19.4-1l6.6-21H225l-15.9-50.8L228.5,104.4z"/>
	<path class="st1" d="M293.6,83h19.8v27.8h20.9V83h19.8v73.3h-19.8v-27.8h-20.9v27.8h-19.8V83z"/>
	<path class="st1" d="M388.6,123.3c0-2.5-1.6-3.8-4.7-3.8c-3.8,0-9.5,1-17.3,3.2l-2.5-15.1c8.2-2.5,16.2-3.8,23.9-3.8
		c12.1,0,18.5,5.2,18.5,18.5v33.9h-13.4l-1.9-3.7c-5,3.1-9.9,4.7-14.7,4.7c-8.5,0-15-5.5-15-15.1c0-5.4,2-9.4,6-11.8
		c4-2.5,11.1-4.3,21.2-5.3V123.3z M388.6,142.9v-6.6c-8.4,1.1-10.2,1.8-10.2,4.7c0,2.1,1.3,3.1,3.7,3.1
		C383.6,144.1,385.8,143.7,388.6,142.9z"/>
	<path class="st1" d="M425.8,80.2c2.8,0,5.2,0.9,7,2.8c1.9,1.8,2.8,4.2,2.8,7c0,2.8-0.9,5.2-2.8,7.1c-1.8,1.8-4.2,2.7-7,2.7
		c-2.8,0-5.2-0.9-7.1-2.7c-1.8-1.9-2.7-4.3-2.7-7.1c0-2.8,0.9-5.2,2.7-7C420.5,81.2,423,80.2,425.8,80.2z M416.9,105.5l17.7-1v51.9
		h-17.7V105.5z"/>
	<path class="st1" d="M480.7,124c-3.9-1.6-7-2.1-9.4-1.6c-2.4,0.5-5.2,3-8.5,7.4v26.5h-17.7v-50.8l17.7-1v8c3.7-4.3,6.9-6.9,9.7-7.8
		c2.9-1,6.3-0.9,10.1,0.4L480.7,124z"/>
</g>
<g>
	<g class="st0">
		<path class="st1" d="M36.7,62.7L24.9,24.4l-5.2,38h-8.1l7.4-48.1l10.3-0.5l11.8,38.4l11.6-37.9l10.4-0.5l7.6,48.6h-8.3l-5.2-38
			L45.7,62.1L36.7,62.7z"/>
		<path class="st1" d="M83.1,48.4c0.2,5.5,3.1,8.3,8.7,8.3c2.1,0,5.4-0.5,9.7-1.7l1,6.1c-3.8,1.4-7.6,2.1-11.3,2.1
			c-10.3,0-15.5-5.8-15.5-17.3c0-11.8,6-17.3,15.3-17.3s14.7,6.9,12.9,19.9H83.1z M83.2,42.8h13.5c0.2-5.2-2.1-8.2-6.1-8.2
			C86.2,34.6,83.5,37.5,83.2,42.8z"/>
		<path class="st1" d="M113.8,35.9h-5.4l0.5-6.7h4.9V19l7.6-0.5v10.7h9.5l-0.5,6.7h-9v13.9c0,4.2,1.2,6.5,4.8,6.5
			c1.5,0,3.2-0.3,5.2-0.8l0.6,6.4c-2.7,0.8-5.2,1.1-7.4,1.1c-7.2,0-10.8-4.2-10.8-12.5V35.9z"/>
		<path class="st1" d="M151.9,28.5c10.1,0,16.1,5.8,16.1,17.3c0,11.6-6,17.3-16.1,17.3c-10.2,0-16.2-5.8-16.2-17.3
			C135.7,34.3,141.7,28.5,151.9,28.5z M151.9,56.4c5.6,0,8.4-3.5,8.4-10.6c0-7-2.8-10.5-8.4-10.5c-5.6,0-8.5,3.5-8.5,10.5
			C143.4,52.8,146.2,56.4,151.9,56.4z"/>
		<path class="st1" d="M197.1,10.7l7.6-0.5v52.1h-6.9l-0.7-3.5c-4.5,2.8-8.4,4.2-11.5,4.2c-7.1,0-11.8-6-11.8-17.3
			c0-11.6,5.9-17.3,14.2-17.3c2.9,0,5.9,0.7,9.1,2V10.7z M197.1,36.8c-3-1-5.5-1.6-7.6-1.6c-4.7,0-8,3.2-8,10.7c0,6.7,2.1,10,6.1,10
			c1.8,0,5-1,9.4-3.1V36.8z"/>
		<path class="st1" d="M228.1,28.5c10.1,0,16.1,5.8,16.1,17.3c0,11.6-6,17.3-16.1,17.3c-10.2,0-16.2-5.8-16.2-17.3
			C211.9,34.3,217.9,28.5,228.1,28.5z M228.1,56.4c5.6,0,8.4-3.5,8.4-10.6c0-7-2.8-10.5-8.4-10.5c-5.6,0-8.5,3.5-8.5,10.5
			C219.6,52.8,222.5,56.4,228.1,56.4z"/>
	</g>
</g>
</svg>
